<svg xmlns="http://www.w3.org/2000/svg" viewBox="0 0 100 104" fill="none">
  <defs>
    <linearGradient id="bg" x1="0" y1="0" x2="100" y2="104" gradientUnits="userSpaceOnUse">
      <stop offset="0" stop-color="#dcd6cd"/>
      <stop offset="1" stop-color="#bcb0a2"/>
    </linearGradient>
  </defs>
  <rect width="100" height="104" fill="url(#bg)"/>
  <g fill="#4a4339">
    <ellipse cx="50" cy="56" rx="15" ry="17"/>
    <path d="M33 52c0-11 7-19 17-19s17 8 17 19c0 6-1 14-3 20-1-4-1-9-1-13-5 2-12 3-19 1-3-1-5-3-6-5-1 4-2 9-3 13-1-5-2-11-2-16Z"/>
    <path d="M20 100c2-13 12-21 26-22 3 3 5 4 8 4s5-1 8-4c14 1 24 9 26 22v4H20v-4Z"/>
  </g>
</svg>
